<svg id="Layer_1" data-name="Layer 1" xmlns="http://www.w3.org/2000/svg" viewBox="0 0 300 72.44"><defs><style>.cls-1{fill:#fff;}</style></defs><title>RedditReffler logo</title><path class="cls-1" d="M23.29,37.07V29.22c0-7.92-3.86-12.12-11.18-12.14H0V71.59H9.83V52.18l5.73,19.41H26.29l-8.64-24.8C21.4,45,23.29,41.76,23.29,37.07ZM9.83,26.81h1.51c1.28,0,2.12.41,2.12,2.41v7.85a2.08,2.08,0,0,1-1.29,2.25,6.36,6.36,0,0,1-1.76.14H9.83Z"/><path class="cls-1" d="M40.67,16.26c-7.82,0-12,4.19-12,12.11V60.3c0,8,4.13,12.14,12,12.14s12-4.21,12-12.14V52.13H42.82V60.3c0,2-.86,2.39-2.15,2.39s-2.12-.4-2.12-2.39V49.21h14.1V28.37C52.65,20.45,48.51,16.26,40.67,16.26Zm0,9.72c1.28,0,2.13.42,2.13,2.39V39.46H38.55V28.37C38.55,26.39,39.39,26,40.69,26Z"/><path class="cls-1" d="M71.78,17.11a12.1,12.1,0,0,0-4.68-.85c-4.3,0-9.42,2.13-9.42,12.14V60.3c0,8,4.13,12.14,12,12.14s12-4.21,12-12.14V.16H71.78Zm0,43.19c0,2-.86,2.39-2.15,2.39s-2.12-.4-2.12-2.39V28.4c0-2,.86-2.39,2.15-2.39s2.11.4,2.12,2.37Z"/><path class="cls-1" d="M100.74,17.11a12.14,12.14,0,0,0-4.68-.85c-4.3,0-9.42,2.13-9.42,12.14V60.3c0,8,4.13,12.14,12,12.14s12-4.21,12-12.14V.16h-9.83Zm0,43.19c0,2-.86,2.39-2.15,2.39s-2.12-.4-2.12-2.39V28.4c0-2,.86-2.39,2.15-2.39s2.11.4,2.12,2.37Z"/><rect class="cls-1" x="115.6" y="17.08" width="9.83" height="54.51"/><rect class="cls-1" x="115.31" y="3.06" width="10.44" height="10.44"/><polygon class="cls-1" points="143.29 0.16 133.46 0.16 133.46 17.08 128.06 17.08 128.06 26.81 133.46 26.81 133.46 71.59 143.29 71.59 143.29 26.81 149.12 26.81 149.12 17.08 143.29 17.08 143.29 0.16"/><path class="cls-1" d="M175.58,37.07V29.22c0-7.92-3.87-12.12-11.18-12.14H152.28V71.59h9.83V52.18l5.74,19.41h10.72l-8.63-24.8C173.68,45,175.58,41.76,175.58,37.07ZM162.11,26.81h1.51c1.28,0,2.13.41,2.13,2.41v7.85a2.08,2.08,0,0,1-1.3,2.25,6.36,6.36,0,0,1-1.76.14h-.58Z"/><path class="cls-1" d="M193,16.26c-7.83,0-12,4.19-12,12.11v8.18h9.83V28.37c0-2,.86-2.38,2.18-2.39s2.1.41,2.1,2.39v11.9a12,12,0,0,0-4.69-.86c-4.29,0-9.42,2.13-9.42,12.14V60.3c0,7.93,4.14,12.12,12,12.14s12-4.19,12-12.14V28.37C204.94,20.45,200.8,16.26,193,16.26Zm2.13,35.26V60.3c0,2-.85,2.39-2.13,2.39s-2.15-.4-2.15-2.39V51.55c0-2,.86-2.39,2.15-2.39S195.09,49.56,195.11,51.52Z"/><path class="cls-1" d="M226.71,12.14v4.94h-5.64V12.14c0-2,.85-2.39,2.12-2.39h1.15V0h-1.15c-7.82,0-11.95,4.2-11.95,12.14v4.94H208.1v9.73h3.14V71.59h9.83V26.81h5.64V71.59h9.83V26.81h3.27V17.08h-3.27V12.14c0-2,.85-2.39,2.12-2.39h1.15V0h-1.15C230.84,0,226.71,4.2,226.71,12.14Z"/><rect class="cls-1" x="242.97" y="0.16" width="9.83" height="71.43"/><path class="cls-1" d="M269.78,16.26c-7.82,0-11.95,4.19-11.95,12.11V60.3c0,8,4.13,12.14,12,12.14s12-4.21,12-12.14V52.13h-9.83V60.3c0,2-.85,2.39-2.15,2.39s-2.12-.4-2.12-2.39V49.21h14.1V28.37C281.76,20.45,277.62,16.26,269.78,16.26Zm0,9.72c1.28,0,2.13.42,2.13,2.39V39.46h-4.27V28.37C267.66,26.39,268.5,26,269.8,26Z"/><path class="cls-1" d="M298.74,16.26c-7.82,0-11.95,4.19-11.95,12.11V71.59h9.83V28.37c0-2,.84-2.39,2.1-2.39H300V16.26Z"/></svg>