<svg id="Layer_1" data-name="Layer 1" xmlns="http://www.w3.org/2000/svg" viewBox="0 0 704.65 158.95"><defs><style>.cls-1{fill:#fff;}</style></defs><title>RedditReffler logo</title><path class="cls-1" d="M95.37,56.64,91.1,57.78,92.87,83l2.78-.75A12.29,12.29,0,0,0,99.06,81a6.92,6.92,0,0,0,2.93-6.5l-.94-13.26Q100.62,55.24,95.37,56.64Z"/><path class="cls-1" d="M158.21,107.75,133.52,15.61h0l.91,3.41L41.24,44a54,54,0,0,0,9.63,2.78l2.7,8.55L48.3,53.63a37.63,37.63,0,0,1-13-7.57l29.1,108.63,79-21.16A21,21,0,0,0,158.21,107.75Zm-49.39,22.34L95.23,94.22l-1.52.64,2.68,38.56L84.3,136.66,78.12,48.49l17.6-4.72q13.31-3.51,16.5,8.45a30.44,30.44,0,0,1,.91,5.79l1,13.26q.78,11.64-8.49,17.88l16.48,37.39Z"/><path class="cls-1" d="M20.14,42.1c-2-.72-4.08-1.48-6.14-2.14a66.1,66.1,0,0,0-6.38-1.84,5.82,5.82,0,0,0-2.81.38c-.83.25-.87.75-.32,1.51a4.85,4.85,0,0,0,3.05,1.76C11.76,42.8,16,42.46,20.14,42.1Z"/><path class="cls-1" d="M48.56,26.51a10.82,10.82,0,0,0,1.5-3,5.23,5.23,0,0,0-.21-2c-.62.11-1.4,0-1.81.35a14.82,14.82,0,0,0-3,3.29c-1.8,3-3.37,6.19-5.16,9.52C43.07,32.15,46.18,29.74,48.56,26.51Z"/><path class="cls-1" d="M30.88,50.54a43.75,43.75,0,0,1-7,16.14s-.08.06-.17.11a33.12,33.12,0,0,0-3.41-7.72c-.12-.19,0-.66.18-.88A53,53,0,0,0,26.21,48L1.62,54.6,25.4,143.34a21,21,0,0,0,25.78,14.88l10.57-2.83-2.59.7Z"/><path class="cls-1" d="M33.42,38.13c2.81-4.33,5.58-8.68,8.41-13a14.15,14.15,0,0,1,4.73-4.6c2.18-1.26,4-.62,5.14,1.82a7.31,7.31,0,0,1-.63,7.59,37.36,37.36,0,0,1-7.17,7.75l89-23.86A21.06,21.06,0,0,0,107.74.72L28.79,21.88l4.43,16.55Z"/><path class="cls-1" d="M7.77,45.85A7.4,7.4,0,0,1,3,39.48a2.84,2.84,0,0,1,2.07-3A9.18,9.18,0,0,1,10,36c2.59.49,5.17,1.09,7.73,1.75,3.1.79,6.18,1.71,9.27,2.54a2,2,0,0,0,1.1-.05l-4.56-17-8,2.14a21,21,0,0,0-15.28,24l10.44-2.79C9.76,46.36,8.76,46.15,7.77,45.85Z"/><path class="cls-1" d="M223.2,81V67.3c0-13.79-6.72-21.09-19.45-21.13H182.67V141h17.1V107.25l10,33.76h18.67l-15-43.15C219.9,94.79,223.2,89.11,223.2,81ZM199.77,63.09h2.63c2.22,0,3.7.72,3.7,4.21V81c0,2.66-1.24,3.49-2.25,3.9a10.61,10.61,0,0,1-3.07.25h-1Z"/><path class="cls-1" d="M253.44,44.74c-13.61,0-20.8,7.29-20.8,21.07v55.56c0,13.82,7.19,21.13,20.81,21.13s20.83-7.34,20.83-21.13V107.15h-17.1v14.22c0,3.46-1.49,4.16-3.74,4.16s-3.69-.7-3.69-4.16V102.08h24.53V65.81C274.28,52,267.08,44.74,253.44,44.74Zm0,16.92c2.23,0,3.71.73,3.71,4.15v19.3h-7.43V65.81C249.75,62.36,251.2,61.66,253.47,61.66Z"/><path class="cls-1" d="M307.57,46.23a20.86,20.86,0,0,0-8.15-1.49c-7.48,0-16.39,3.71-16.39,21.12v55.51c0,13.82,7.19,21.13,20.8,21.13s20.84-7.34,20.84-21.13V16.73h-17.1Zm0,75.14c0,3.46-1.5,4.16-3.74,4.16s-3.7-.7-3.7-4.16V65.86c0-3.45,1.5-4.16,3.74-4.16s3.67.7,3.7,4.12Z"/><path class="cls-1" d="M358,46.23a20.86,20.86,0,0,0-8.15-1.49c-7.48,0-16.39,3.71-16.39,21.12v55.51c0,13.82,7.19,21.13,20.8,21.13s20.84-7.34,20.84-21.13V16.73H358Zm0,75.14c0,3.46-1.5,4.16-3.74,4.16s-3.7-.7-3.7-4.16V65.86c0-3.45,1.5-4.16,3.74-4.16s3.67.7,3.7,4.13Z"/><rect class="cls-1" x="383.81" y="46.17" width="17.1" height="94.84"/><rect class="cls-1" x="383.3" y="21.77" width="18.17" height="18.17"/><polygon class="cls-1" points="431.99 16.73 414.89 16.73 414.89 46.17 405.49 46.17 405.49 63.09 414.89 63.09 414.89 141.01 431.99 141.01 431.99 63.09 442.13 63.09 442.13 46.17 431.99 46.17 431.99 16.73"/><path class="cls-1" d="M488.17,81V67.3c0-13.79-6.73-21.09-19.46-21.13H447.63V141h17.11V107.25l10,33.76h18.66l-15-43.15C484.86,94.79,488.17,89.11,488.17,81ZM464.74,63.09h2.63c2.22,0,3.69.72,3.69,4.21V81c0,2.66-1.23,3.49-2.25,3.9a10.49,10.49,0,0,1-3.06.25h-1Z"/><path class="cls-1" d="M518.45,44.74c-13.64,0-20.85,7.29-20.85,21.07V80h17.11V65.81c0-3.42,1.48-4.13,3.79-4.15s3.64.7,3.64,4.15v20.7A20.81,20.81,0,0,0,514,85c-7.48,0-16.4,3.71-16.4,21.12v15.23c0,13.79,7.21,21.09,20.85,21.13s20.8-7.31,20.8-21.13V65.81C539.25,52,532.05,44.74,518.45,44.74Zm3.69,61.36v15.27c0,3.46-1.47,4.16-3.69,4.16s-3.74-.7-3.74-4.16V106.14c0-3.45,1.49-4.16,3.74-4.16S522.12,102.69,522.14,106.1Z"/><path class="cls-1" d="M577.13,37.57v8.6h-9.81v-8.6c0-3.45,1.48-4.16,3.69-4.16h2v-17h-2c-13.6,0-20.79,7.3-20.79,21.12v8.6h-5.47V63.09h5.47V141h17.1V63.09h9.81V141h17.1V63.09h5.7V46.17h-5.7v-8.6c0-3.45,1.48-4.16,3.7-4.16h2v-17h-2C584.32,16.45,577.13,23.75,577.13,37.57Z"/><rect class="cls-1" x="605.43" y="16.73" width="17.1" height="124.29"/><path class="cls-1" d="M652.08,44.74c-13.61,0-20.8,7.29-20.8,21.07v55.56c0,13.82,7.19,21.13,20.8,21.13s20.84-7.34,20.84-21.13V107.15h-17.1v14.22c0,3.46-1.5,4.16-3.74,4.16s-3.7-.7-3.7-4.16V102.08h24.54V65.81C672.92,52,665.71,44.74,652.08,44.74Zm0,16.92c2.23,0,3.71.73,3.71,4.15v19.3h-7.44V65.81C648.38,62.36,649.84,61.66,652.11,61.66Z"/><path class="cls-1" d="M702.47,44.74c-13.61,0-20.8,7.29-20.8,21.07V141h17.1V65.81c0-3.45,1.46-4.15,3.65-4.15h2.23V44.74Z"/></svg>